{"canvas_config":{"background":null,"height":1920,"ratio":"original","width":1920},"color_space":0,"config":{"adjust_max_index":1,"attachment_info":[],"combination_max_index":1,"export_range":null,"extract_audio_last_index":1,"lyrics_recognition_id":"","lyrics_sync":true,"lyrics_taskinfo":[],"maintrack_adsorb":true,"material_save_mode":0,"multi_language_current":"none","multi_language_list":[],"multi_language_main":"none","multi_language_mode":"none","original_sound_last_index":1,"record_audio_last_index":1,"sticker_max_index":1,"subtitle_keywords_config":null,"subtitle_recognition_id":"","subtitle_sync":true,"subtitle_taskinfo":[],"system_font_list":[],"video_mute":false,"zoom_info_params":{"offset_x":0.0,"offset_y":0.0,"zoom_ratio":0.99999}},"cover":null,"create_time":0,"duration":111600000,"extra_info":null,"fps":30.0,"free_render_index_mode_on":false,"group_container":null,"id":"DEA0ACFA-936D-480a-AD4D-EF8317017F37","is_drop_frame_timecode":false,"keyframe_graph_list":[],"keyframes":{"adjusts":[],"audios":[],"effects":[],"filters":[],"handwrites":[],"stickers":[],"texts":[],"videos":[]},"last_modified_platform":{"app_id":359289,"app_source":"cc","app_version":"5.9.0","device_id":"c87871b01ed15b67aca19f3efea983b4","hard_disk_id":"98697f5b2672733057711c84e4b517c3","mac_address":"09861091e4eef2367b35d8703476edfc,3ab780bc59d11a00e1ba676c31de1115","os":"windows","os_version":"10.0.26100"},"lyrics_effects":[],"materials":{"ai_translates":[],"audio_balances":[],"audio_effects":[],"audio_fades":[],"audio_track_indexes":[],"audios":[],"beats":[],"canvases":[{"album_image":"","blur":0.0,"color":"","id":"575DB377-A63D-4b61-8CC8-0EAA13F4BD5E","image":"","image_id":"","image_name":"","source_platform":0,"team_id":"","type":"canvas_color"},{"album_image":"","blur":0.0,"color":"","id":"4163C4F3-2EE6-4768-B582-EBBD00A363D7","image":"","image_id":"","image_name":"","source_platform":0,"team_id":"","type":"canvas_color"},{"album_image":"","blur":0.0,"color":"","id":"084AA7D9-8315-48dc-98C1-A1F1562F3FF9","image":"","image_id":"","image_name":"","source_platform":0,"team_id":"","type":"canvas_color"},{"album_image":"","blur":0.0,"color":"","id":"9FFABA11-EA5F-4d05-BB1F-47D13B39D84F","image":"","image_id":"","image_name":"","source_platform":0,"team_id":"","type":"canvas_color"},{"album_image":"","blur":0.0,"color":"","id":"3923D6CB-3E26-401d-99D3-C0669EFE104B","image":"","image_id":"","image_name":"","source_platform":0,"team_id":"","type":"canvas_color"},{"album_image":"","blur":0.0,"color":"","id":"767942E0-498B-4a67-9294-7CB132E9A5D8","image":"","image_id":"","image_name":"","source_platform":0,"team_id":"","type":"canvas_color"},{"album_image":"","blur":0.0,"color":"","id":"54BD26F6-DEEB-4bc2-933A-726EA23318C9","image":"","image_id":"","image_name":"","source_platform":0,"team_id":"","type":"canvas_color"},{"album_image":"","blur":0.0,"color":"","id":"DE33B258-89DF-4bce-BE49-1C861ED27776","image":"","image_id":"","image_name":"","source_platform":0,"team_id":"","type":"canvas_color"},{"album_image":"","blur":0.0,"color":"","id":"9787BF30-12D9-4c4c-9330-2BA3E1989B9A","image":"","image_id":"","image_name":"","source_platform":0,"team_id":"","type":"canvas_color"},{"album_image":"","blur":0.0,"color":"","id":"0487E69E-C3E4-490e-8303-561B837C6EDC","image":"","image_id":"","image_name":"","source_platform":0,"team_id":"","type":"canvas_color"},{"album_image":"","blur":0.0,"color":"","id":"0240E24F-C3F2-49d5-930A-41726A1B7CCC","image":"","image_id":"","image_name":"","source_platform":0,"team_id":"","type":"canvas_color"},{"album_image":"","blur":0.0,"color":"","id":"7D99B329-DCC9-4d49-AE54-EDB49E5215D8","image":"","image_id":"","image_name":"","source_platform":0,"team_id":"","type":"canvas_color"},{"album_image":"","blur":0.0,"color":"","id":"AF976DB9-69BC-4640-AFEC-CD51DC911B99","image":"","image_id":"","image_name":"","source_platform":0,"team_id":"","type":"canvas_color"},{"album_image":"","blur":0.0,"color":"","id":"E2BF4B0C-3EE6-4759-9359-367757E6DB06","image":"","image_id":"","image_name":"","source_platform":0,"team_id":"","type":"canvas_color"},{"album_image":"","blur":0.0,"color":"","id":"E2DF4751-1712-40a1-B172-07BDAF664F23","image":"","image_id":"","image_name":"","source_platform":0,"team_id":"","type":"canvas_color"},{"album_image":"","blur":0.0,"color":"","id":"F6AD20FE-E83D-402c-AAD7-5681DCB5318C","image":"","image_id":"","image_name":"","source_platform":0,"team_id":"","type":"canvas_color"},{"album_image":"","blur":0.0,"color":"","id":"3ED74EB6-93DF-4e76-A96D-4239D961A34D","image":"","image_id":"","image_name":"","source_platform":0,"team_id":"","type":"canvas_color"}],"chromas":[],"color_curves":[],"common_mask":[],"digital_humans":[],"drafts":[],"effects":[],"flowers":[],"green_screens":[],"handwrites":[],"hsl":[],"images":[],"log_color_wheels":[],"loudnesses":[],"manual_beautys":[],"manual_deformations":[],"material_animations":[{"animations":[],"id":"C11C6A3F-67C4-4916-8C5D-664921009B00","multi_language_current":"none","type":"sticker_animation"},{"animations":[],"id":"84230743-2C60-4d3d-8D56-E29F74288D7E","multi_language_current":"none","type":"sticker_animation"},{"animations":[],"id":"48452A90-6B93-4d62-BC07-D444072BF6C8","multi_language_current":"none","type":"sticker_animation"},{"animations":[],"id":"19BB4A74-1FE9-45cb-B40C-0D1416EE5BD5","multi_language_current":"none","type":"sticker_animation"},{"animations":[],"id":"B4EB859E-92EA-4ac8-81EC-FBD35364C8E2","multi_language_current":"none","type":"sticker_animation"},{"animations":[],"id":"5E63B08F-3B15-43f3-AA69-55F928D9A5E9","multi_language_current":"none","type":"sticker_animation"},{"animations":[],"id":"99C6F3DB-C8F2-4a14-B7EF-D856D8DB4823","multi_language_current":"none","type":"sticker_animation"},{"animations":[],"id":"7C155FD5-EF30-408c-A2BA-F2CC754A65C0","multi_language_current":"none","type":"sticker_animation"},{"animations":[],"id":"ED00F7F0-1C9C-45fc-B65B-5FB14FD78F50","multi_language_current":"none","type":"sticker_animation"},{"animations":[],"id":"F1E311DB-88A7-447a-BE12-D3F3F59AE552","multi_language_current":"none","type":"sticker_animation"},{"animations":[],"id":"282C3D24-0B39-42dd-A241-BCA8C842CA03","multi_language_current":"none","type":"sticker_animation"},{"animations":[],"id":"89525272-581F-441e-9BE7-B867A218BA7D","multi_language_current":"none","type":"sticker_animation"},{"animations":[],"id":"2F38DA55-2139-4a59-9120-82B919939906","multi_language_current":"none","type":"sticker_animation"},{"animations":[],"id":"79141B1C-8633-4c0e-82FD-0DA56C0B4D5E","multi_language_current":"none","type":"sticker_animation"},{"animations":[],"id":"3BFD5067-A3CB-4630-91D1-663849AE270E","multi_language_current":"none","type":"sticker_animation"}],"material_colors":[],"multi_language_refs":[],"placeholder_infos":[{"error_path":"","error_text":"","id":"D566D24A-C52F-4e56-9789-C432366815F4","meta_type":"none","res_path":"","res_text":"","type":"placeholder_info"},{"error_path":"","error_text":"","id":"4F1D0121-FE5C-4fa8-AB40-7CD3CCAE97E9","meta_type":"none","res_path":"","res_text":"","type":"placeholder_info"},{"error_path":"","error_text":"","id":"6EA8526A-C32D-4339-9965-53276EE81F33","meta_type":"none","res_path":"","res_text":"","type":"placeholder_info"},{"error_path":"","error_text":"","id":"A3DFF051-19A1-47e3-9271-365B558321FB","meta_type":"none","res_path":"","res_text":"","type":"placeholder_info"},{"error_path":"","error_text":"","id":"2014A138-D42A-47b3-B2E1-0957C22F1924","meta_type":"none","res_path":"","res_text":"","type":"placeholder_info"},{"error_path":"","error_text":"","id":"52312669-1B0C-4ec1-9525-71D0D641AC31","meta_type":"none","res_path":"","res_text":"","type":"placeholder_info"},{"error_path":"","error_text":"","id":"C682FBF3-4284-4142-9B42-2140461B1F2F","meta_type":"none","res_path":"","res_text":"","type":"placeholder_info"},{"error_path":"","error_text":"","id":"8CF41622-BE52-46fb-9E3D-AD5D2A8AB381","meta_type":"none","res_path":"","res_text":"","type":"placeholder_info"},{"error_path":"","error_text":"","id":"181021CC-479D-4df9-9D4C-BFB37166A10C","meta_type":"none","res_path":"","res_text":"","type":"placeholder_info"},{"error_path":"","error_text":"","id":"DE7033F1-1152-4a15-A160-6B7E49F084E7","meta_type":"none","res_path":"","res_text":"","type":"placeholder_info"},{"error_path":"","error_text":"","id":"C33F1EE8-B260-471e-AA4F-48B4BC85453D","meta_type":"none","res_path":"","res_text":"","type":"placeholder_info"},{"error_path":"","error_text":"","id":"74C63B0C-8B9B-4406-B54D-ACA5C9147E40","meta_type":"none","res_path":"","res_text":"","type":"placeholder_info"},{"error_path":"","error_text":"","id":"C9D61C89-F391-44a9-90AC-897194A116B3","meta_type":"none","res_path":"","res_text":"","type":"placeholder_info"},{"error_path":"","error_text":"","id":"0A8CBCCF-3296-4616-A728-3C0732E8F069","meta_type":"none","res_path":"","res_text":"","type":"placeholder_info"},{"error_path":"","error_text":"","id":"BF85FCAC-FE47-4df8-89B2-84F3CC774E16","meta_type":"none","res_path":"","res_text":"","type":"placeholder_info"},{"error_path":"","error_text":"","id":"001FDE3E-E9B7-44e1-A4CD-77899335962C","meta_type":"none","res_path":"","res_text":"","type":"placeholder_info"},{"error_path":"","error_text":"","id":"A6EF8EE6-EFBD-4e96-BFF8-0B0C35BFF6CC","meta_type":"none","res_path":"","res_text":"","type":"placeholder_info"}],"placeholders":[],"plugin_effects":[],"primary_color_wheels":[],"realtime_denoises":[],"shapes":[],"smart_crops":[],"smart_relights":[],"sound_channel_mappings":[{"audio_channel_mapping":0,"id":"B7C6B4A6-4BB4-4de5-85E8-B03CF341B91E","is_config_open":false,"type":"none"},{"audio_channel_mapping":0,"id":"A11F5F25-55B0-4367-98BE-C49C5B0ACDF8","is_config_open":false,"type":"none"},{"audio_channel_mapping":0,"id":"AD99CDC3-E93C-4587-98A1-E66D620CEDDB","is_config_open":false,"type":"none"},{"audio_channel_mapping":0,"id":"7591FF38-B151-49f9-B0C7-3F04585526CD","is_config_open":false,"type":"none"},{"audio_channel_mapping":0,"id":"C3E5800B-E641-478a-92E9-F33F47A7E639","is_config_open":false,"type":"none"},{"audio_channel_mapping":0,"id":"688C936E-477F-41d6-AFCD-B78F21BF37EE","is_config_open":false,"type":"none"},{"audio_channel_mapping":0,"id":"E832B900-68AC-49c0-8A03-7524DF470339","is_config_open":false,"type":"none"},{"audio_channel_mapping":0,"id":"B7ECB920-2387-4e82-ABA0-7ECACB3EA012","is_config_open":false,"type":"none"},{"audio_channel_mapping":0,"id":"206F3256-6B53-41af-B161-F98A24CDD480","is_config_open":false,"type":"none"},{"audio_channel_mapping":0,"id":"0CCE088D-219C-4471-A3C0-326B9E0B5985","is_config_open":false,"type":"none"},{"audio_channel_mapping":0,"id":"6ADA29CE-4FC8-49a5-A510-E8D0F1EB0F14","is_config_open":false,"type":"none"},{"audio_channel_mapping":0,"id":"A192CD81-69AC-494e-B421-0E00953BCDBB","is_config_open":false,"type":"none"},{"audio_channel_mapping":0,"id":"F9A55622-617D-4b85-AD81-90F6BA37BBFE","is_config_open":false,"type":"none"},{"audio_channel_mapping":0,"id":"853398D7-EA6C-480f-89D1-8B64C3034545","is_config_open":false,"type":"none"},{"audio_channel_mapping":0,"id":"A7001768-2D16-4a16-B4E1-411140B9CC16","is_config_open":false,"type":"none"},{"audio_channel_mapping":0,"id":"DC9CB503-25B0-4536-BF44-633F6515D8A2","is_config_open":false,"type":"none"},{"audio_channel_mapping":0,"id":"3DFD73A4-A61C-4653-A4E9-909DBC402CE7","is_config_open":false,"type":"none"}],"speeds":[{"curve_speed":null,"id":"22F12C2C-5583-49cc-933B-B08BF4CBD8AE","mode":0,"speed":1.0,"type":"speed"},{"curve_speed":null,"id":"13EA177B-E95C-44c2-BFF4-746D71A825C8","mode":0,"speed":1.0,"type":"speed"},{"curve_speed":null,"id":"E585024D-059B-491e-BD85-3AD183DFB9DE","mode":0,"speed":1.0,"type":"speed"},{"curve_speed":null,"id":"7D353B24-3F95-46dc-A189-631AFE889ED0","mode":0,"speed":1.0,"type":"speed"},{"curve_speed":null,"id":"4BFBDF74-07D9-4d21-A752-90E97756171A","mode":0,"speed":1.0,"type":"speed"},{"curve_speed":null,"id":"E2CD690C-22EC-40a6-ACB4-6AD5CCBAB100","mode":0,"speed":1.0,"type":"speed"},{"curve_speed":null,"id":"41B6A4DB-26AC-44bf-8EFB-F18451A35629","mode":0,"speed":1.0,"type":"speed"},{"curve_speed":null,"id":"63E31C30-6700-4a86-ADEF-D5F1916ED1D8","mode":0,"speed":1.0,"type":"speed"},{"curve_speed":null,"id":"0BB38B21-D2C3-4e58-9BB1-B3F457EB3B76","mode":0,"speed":1.0,"type":"speed"},{"curve_speed":null,"id":"BA357B45-91DC-4b30-84CF-1109D5F62C65","mode":0,"speed":1.0,"type":"speed"},{"curve_speed":null,"id":"5E9A5FFE-5979-4374-A64B-5550D63FEBE1","mode":0,"speed":1.0,"type":"speed"},{"curve_speed":null,"id":"7CD5BF40-F0FA-4f6f-BF83-3F82DDA02B7B","mode":0,"speed":1.0,"type":"speed"},{"curve_speed":null,"id":"30D96674-E956-47f7-828B-A1E9BFE52BDF","mode":0,"speed":1.0,"type":"speed"},{"curve_speed":null,"id":"6A4D27BE-79A0-4461-BF84-6878D2EAC298","mode":0,"speed":1.0,"type":"speed"},{"curve_speed":null,"id":"B8557155-7EAE-4198-BB03-FF3B802D6119","mode":0,"speed":1.0,"type":"speed"},{"curve_speed":null,"id":"C52547E4-65C3-4284-A928-9211E58E3FE0","mode":0,"speed":1.1,"type":"speed"},{"curve_speed":null,"id":"BEDF2B5F-F104-48a8-874E-A0D9FB33CF41","mode":0,"speed":1.12,"type":"speed"}],"stickers":[],"tail_leaders":[],"text_templates":[],"texts":[],"time_marks":[],"transitions":[{"category_id":"27186","category_name":"Trending","duration":466666,"effect_id":"9291028","id":"8D7A6BAB-45FC-45dd-9053-FD8F72876A51","is_overlap":true,"name":"Blur","path":"C:/Users/Computer/AppData/Local/CapCut/User Data/Cache/effect/9291028/fc1352435f88c6f284b6c6dce8552ffe","platform":"all","request_id":"02173950797309900000000000000000000ffff0a00859172a55f","resource_id":"6916426617455645186","source_platform":0,"third_resource_id":"0","type":"transition"},{"category_id":"27186","category_name":"Trending","duration":133333,"effect_id":"9291000","id":"65EDA681-6A81-4e27-8555-4CBF247C2D34","is_overlap":true,"name":"Mix","path":"C:/Users/Computer/AppData/Local/CapCut/User Data/Cache/effect/9291000/7b53f4c008c4c684fccf8c7d4d46cc92","platform":"all","request_id":"02173950797309900000000000000000000ffff0a00859172a55f","resource_id":"6724845717472416269","source_platform":0,"third_resource_id":"0","type":"transition"},{"category_id":"27186","category_name":"Trending","duration":466666,"effect_id":"9291000","id":"E3F5756A-55FC-4548-AE19-E70EF8EFF0DB","is_overlap":true,"name":"Mix","path":"C:/Users/Computer/AppData/Local/CapCut/User Data/Cache/effect/9291000/7b53f4c008c4c684fccf8c7d4d46cc92","platform":"all","request_id":"02173950797309900000000000000000000ffff0a00859172a55f","resource_id":"6724845717472416269","source_platform":0,"third_resource_id":"0","type":"transition"}],"video_effects":[],"video_trackings":[],"videos":[{"aigc_history_id":"","aigc_item_id":"","aigc_type":"none","audio_fade":null,"beauty_body_preset_id":"","beauty_face_auto_preset":{"name":"","preset_id":"","rate_map":""},"beauty_face_auto_preset_infos":[],"beauty_face_preset_infos":[],"cartoon_path":"","category_id":"","category_name":"","check_flag":62978047,"crop":{"lower_left_x":0.0,"lower_left_y":1.0,"lower_right_x":1.0,"lower_right_y":1.0,"upper_left_x":0.0,"upper_left_y":0.0,"upper_right_x":1.0,"upper_right_y":0.0},"crop_ratio":"free","crop_scale":1.0,"duration":10000000,"extra_type_option":0,"formula_id":"","freeze":null,"has_audio":false,"has_sound_separated":false,"height":480,"id":"8A074CC4-C8B3-42d4-AEBD-D8CB187B20C6","intensifies_audio_path":"","intensifies_path":"","is_ai_generate_content":false,"is_copyright":false,"is_text_edit_overdub":false,"is_unified_beauty_mode":false,"live_photo_cover_path":"","live_photo_timestamp":-1,"local_id":"","local_material_from":"","local_material_id":"","material_id":"","material_name":"1.0_20250213_2327_Mystery of the Mists_simple_compose_01jm1bbemsea7sj11tedjasgmk.mp4","material_url":"","matting":{"custom_matting_id":"","enable_matting_stroke":false,"expansion":0,"feather":0,"flag":0,"has_use_quick_brush":false,"has_use_quick_eraser":false,"interactiveTime":[],"path":"","reverse":false,"strokes":[]},"media_path":"","multi_camera_info":null,"object_locked":null,"origin_material_id":"","path":"C:/Users/Computer/Downloads/1.0_20250213_2327_Mystery of the Mists_simple_compose_01jm1bbemsea7sj11tedjasgmk.mp4","picture_from":"none","picture_set_category_id":"","picture_set_category_name":"","request_id":"","reverse_intensifies_path":"","reverse_path":"","smart_match_info":null,"smart_motion":null,"source":0,"source_platform":0,"stable":{"matrix_path":"","stable_level":0,"time_range":{"duration":0,"start":0}},"team_id":"","type":"video","video_algorithm":{"ai_background_configs":[],"ai_expression_driven":null,"ai_motion_driven":null,"aigc_generate":null,"algorithms":[],"complement_frame_config":null,"deflicker":null,"gameplay_configs":[],"motion_blur_config":null,"mouth_shape_driver":null,"noise_reduction":null,"path":"","quality_enhance":null,"smart_complement_frame":null,"super_resolution":null,"time_range":{"duration":6766666,"start":0}},"width":480},{"aigc_history_id":"","aigc_item_id":"","aigc_type":"none","audio_fade":null,"beauty_body_preset_id":"","beauty_face_auto_preset":{"name":"","preset_id":"","rate_map":""},"beauty_face_auto_preset_infos":[],"beauty_face_preset_infos":[],"cartoon_path":"","category_id":"","category_name":"","check_flag":62978047,"crop":{"lower_left_x":0.0,"lower_left_y":1.0,"lower_right_x":1.0,"lower_right_y":1.0,"upper_left_x":0.0,"upper_left_y":0.0,"upper_right_x":1.0,"upper_right_y":0.0},"crop_ratio":"free","crop_scale":1.0,"duration":10000000,"extra_type_option":0,"formula_id":"","freeze":null,"has_audio":false,"has_sound_separated":false,"height":480,"id":"EBC676BC-3FCA-4698-9DF6-2FEBD6334D6B","intensifies_audio_path":"","intensifies_path":"","is_ai_generate_content":false,"is_copyright":false,"is_text_edit_overdub":false,"is_unified_beauty_mode":false,"live_photo_cover_path":"","live_photo_timestamp":-1,"local_id":"","local_material_from":"","local_material_id":"","material_id":"","material_name":"1.1_20250213_2327_Mystery of the Mists_simple_compose_01jm1bben1fcka2de0y2rv5hyf.mp4","material_url":"","matting":{"custom_matting_id":"","enable_matting_stroke":false,"expansion":0,"feather":0,"flag":0,"has_use_quick_brush":false,"has_use_quick_eraser":false,"interactiveTime":[],"path":"","reverse":false,"strokes":[]},"media_path":"","multi_camera_info":null,"object_locked":null,"origin_material_id":"","path":"C:/Users/Computer/Downloads/1.1_20250213_2327_Mystery of the Mists_simple_compose_01jm1bben1fcka2de0y2rv5hyf.mp4","picture_from":"none","picture_set_category_id":"","picture_set_category_name":"","request_id":"","reverse_intensifies_path":"","reverse_path":"","smart_match_info":null,"smart_motion":null,"source":0,"source_platform":0,"stable":{"matrix_path":"","stable_level":0,"time_range":{"duration":0,"start":0}},"team_id":"","type":"video","video_algorithm":{"ai_background_configs":[],"ai_expression_driven":null,"ai_motion_driven":null,"aigc_generate":null,"algorithms":[],"complement_frame_config":null,"deflicker":null,"gameplay_configs":[],"motion_blur_config":null,"mouth_shape_driver":null,"noise_reduction":null,"path":"","quality_enhance":null,"smart_complement_frame":null,"super_resolution":null,"time_range":{"duration":6966666,"start":0}},"width":480},{"aigc_history_id":"","aigc_item_id":"","aigc_type":"none","audio_fade":null,"beauty_body_preset_id":"","beauty_face_auto_preset":{"name":"","preset_id":"","rate_map":""},"beauty_face_auto_preset_infos":[],"beauty_face_preset_infos":[],"cartoon_path":"","category_id":"","category_name":"","check_flag":62978047,"crop":{"lower_left_x":0.0,"lower_left_y":1.0,"lower_right_x":1.0,"lower_right_y":1.0,"upper_left_x":0.0,"upper_left_y":0.0,"upper_right_x":1.0,"upper_right_y":0.0},"crop_ratio":"free","crop_scale":1.0,"duration":10000000,"extra_type_option":0,"formula_id":"","freeze":null,"has_audio":false,"has_sound_separated":false,"height":480,"id":"16792AFB-F34C-4f44-8C34-684AD2815D4F","intensifies_audio_path":"","intensifies_path":"","is_ai_generate_content":false,"is_copyright":false,"is_text_edit_overdub":false,"is_unified_beauty_mode":false,"live_photo_cover_path":"","live_photo_timestamp":-1,"local_id":"","local_material_from":"","local_material_id":"","material_id":"","material_name":"1.2_20250213_2348_Forest Exploration Adventure_storyboard_01jm1cj8bbe4r8z7v8s4yqnqgv.mp4","material_url":"","matting":{"custom_matting_id":"","enable_matting_stroke":false,"expansion":0,"feather":0,"flag":0,"has_use_quick_brush":false,"has_use_quick_eraser":false,"interactiveTime":[],"path":"","reverse":false,"strokes":[]},"media_path":"","multi_camera_info":null,"object_locked":null,"origin_material_id":"","path":"C:/Users/Computer/Downloads/1.2_20250213_2348_Forest Exploration Adventure_storyboard_01jm1cj8bbe4r8z7v8s4yqnqgv.mp4","picture_from":"none","picture_set_category_id":"","picture_set_category_name":"","request_id":"","reverse_intensifies_path":"","reverse_path":"","smart_match_info":null,"smart_motion":null,"source":0,"source_platform":0,"stable":{"matrix_path":"","stable_level":0,"time_range":{"duration":0,"start":0}},"team_id":"","type":"video","video_algorithm":{"ai_background_configs":[],"ai_expression_driven":null,"ai_motion_driven":null,"aigc_generate":null,"algorithms":[],"complement_frame_config":null,"deflicker":null,"gameplay_configs":[],"motion_blur_config":null,"mouth_shape_driver":null,"noise_reduction":null,"path":"","quality_enhance":null,"smart_complement_frame":null,"super_resolution":null,"time_range":{"duration":9000001,"start":999999}},"width":480},{"aigc_history_id":"","aigc_item_id":"","aigc_type":"none","audio_fade":null,"beauty_body_preset_id":"","beauty_face_auto_preset":{"name":"","preset_id":"","rate_map":""},"beauty_face_auto_preset_infos":[],"beauty_face_preset_infos":[],"cartoon_path":"","category_id":"","category_name":"","check_flag":62978047,"crop":{"lower_left_x":0.0,"lower_left_y":1.0,"lower_right_x":1.0,"lower_right_y":1.0,"upper_left_x":0.0,"upper_left_y":0.0,"upper_right_x":1.0,"upper_right_y":0.0},"crop_ratio":"free","crop_scale":1.0,"duration":10000000,"extra_type_option":0,"formula_id":"","freeze":null,"has_audio":false,"has_sound_separated":false,"height":480,"id":"9627592F-33BC-42d6-B690-7536BD469586","intensifies_audio_path":"","intensifies_path":"","is_ai_generate_content":false,"is_copyright":false,"is_text_edit_overdub":false,"is_unified_beauty_mode":false,"live_photo_cover_path":"","live_photo_timestamp":-1,"local_id":"","local_material_from":"","local_material_id":"","material_id":"","material_name":"1.25_20250214_1044_Ancient Forest Exploration_storyboard_01jm2j439je8ksmmyf547x08xd.mp4","material_url":"","matting":{"custom_matting_id":"","enable_matting_stroke":false,"expansion":0,"feather":0,"flag":0,"has_use_quick_brush":false,"has_use_quick_eraser":false,"interactiveTime":[],"path":"","reverse":false,"strokes":[]},"media_path":"","multi_camera_info":null,"object_locked":null,"origin_material_id":"","path":"C:/Users/Computer/Downloads/1.25_20250214_1044_Ancient Forest Exploration_storyboard_01jm2j439je8ksmmyf547x08xd.mp4","picture_from":"none","picture_set_category_id":"","picture_set_category_name":"","request_id":"","reverse_intensifies_path":"","reverse_path":"","smart_match_info":null,"smart_motion":null,"source":0,"source_platform":0,"stable":{"matrix_path":"","stable_level":0,"time_range":{"duration":0,"start":0}},"team_id":"","type":"video","video_algorithm":{"ai_background_configs":[],"ai_expression_driven":null,"ai_motion_driven":null,"aigc_generate":null,"algorithms":[],"complement_frame_config":null,"deflicker":null,"gameplay_configs":[],"motion_blur_config":null,"mouth_shape_driver":null,"noise_reduction":null,"path":"","quality_enhance":null,"smart_complement_frame":null,"super_resolution":null,"time_range":{"duration":9666666,"start":0}},"width":480},{"aigc_history_id":"","aigc_item_id":"","aigc_type":"none","audio_fade":null,"beauty_body_preset_id":"","beauty_face_auto_preset":{"name":"","preset_id":"","rate_map":""},"beauty_face_auto_preset_infos":[],"beauty_face_preset_infos":[],"cartoon_path":"","category_id":"","category_name":"","check_flag":62978047,"crop":{"lower_left_x":0.0,"lower_left_y":1.0,"lower_right_x":1.0,"lower_right_y":1.0,"upper_left_x":0.0,"upper_left_y":0.0,"upper_right_x":1.0,"upper_right_y":0.0},"crop_ratio":"free","crop_scale":1.0,"duration":10000000,"extra_type_option":0,"formula_id":"","freeze":null,"has_audio":false,"has_sound_separated":false,"height":480,"id":"7B9C1215-F83F-4811-A07D-723069AB27C9","intensifies_audio_path":"","intensifies_path":"","is_ai_generate_content":false,"is_copyright":false,"is_text_edit_overdub":false,"is_unified_beauty_mode":false,"live_photo_cover_path":"","live_photo_timestamp":-1,"local_id":"","local_material_from":"","local_material_id":"","material_id":"","material_name":"1.05_20250213_2341_Forest Adventure Quest_storyboard_01jm1c6dsde39bwyv9hmjfp10a.mp4","material_url":"","matting":{"custom_matting_id":"","enable_matting_stroke":false,"expansion":0,"feather":0,"flag":0,"has_use_quick_brush":false,"has_use_quick_eraser":false,"interactiveTime":[],"path":"","reverse":false,"strokes":[]},"media_path":"","multi_camera_info":null,"object_locked":null,"origin_material_id":"","path":"C:/Users/Computer/Downloads/1.05_20250213_2341_Forest Adventure Quest_storyboard_01jm1c6dsde39bwyv9hmjfp10a.mp4","picture_from":"none","picture_set_category_id":"","picture_set_category_name":"","request_id":"","reverse_intensifies_path":"","reverse_path":"","smart_match_info":null,"smart_motion":null,"source":0,"source_platform":0,"stable":{"matrix_path":"","stable_level":0,"time_range":{"duration":0,"start":0}},"team_id":"","type":"video","video_algorithm":{"ai_background_configs":[],"ai_expression_driven":null,"ai_motion_driven":null,"aigc_generate":null,"algorithms":[],"complement_frame_config":null,"deflicker":null,"gameplay_configs":[],"motion_blur_config":null,"mouth_shape_driver":null,"noise_reduction":null,"path":"","quality_enhance":null,"smart_complement_frame":null,"super_resolution":null,"time_range":{"duration":10000000,"start":0}},"width":480},{"aigc_history_id":"","aigc_item_id":"","aigc_type":"none","audio_fade":null,"beauty_body_preset_id":"","beauty_face_auto_preset":{"name":"","preset_id":"","rate_map":""},"beauty_face_auto_preset_infos":[],"beauty_face_preset_infos":[],"cartoon_path":"","category_id":"","category_name":"","check_flag":62978047,"crop":{"lower_left_x":0.0,"lower_left_y":1.0,"lower_right_x":1.0,"lower_right_y":1.0,"upper_left_x":0.0,"upper_left_y":0.0,"upper_right_x":1.0,"upper_right_y":0.0},"crop_ratio":"free","crop_scale":1.0,"duration":10000000,"extra_type_option":0,"formula_id":"","freeze":null,"has_audio":false,"has_sound_separated":false,"height":480,"id":"A38A8712-9EF1-46f3-895A-4A0E35063547","intensifies_audio_path":"","intensifies_path":"","is_ai_generate_content":false,"is_copyright":false,"is_text_edit_overdub":false,"is_unified_beauty_mode":false,"live_photo_cover_path":"","live_photo_timestamp":-1,"local_id":"","local_material_from":"","local_material_id":"","material_id":"","material_name":"1.3_20250214_1035_Jungle Exploration Trail_storyboard_01jm2hk9pqe0qb78zy250kgc7p.mp4","material_url":"","matting":{"custom_matting_id":"","enable_matting_stroke":false,"expansion":0,"feather":0,"flag":0,"has_use_quick_brush":false,"has_use_quick_eraser":false,"interactiveTime":[],"path":"","reverse":false,"strokes":[]},"media_path":"","multi_camera_info":null,"object_locked":null,"origin_material_id":"","path":"C:/Users/Computer/Downloads/1.3_20250214_1035_Jungle Exploration Trail_storyboard_01jm2hk9pqe0qb78zy250kgc7p.mp4","picture_from":"none","picture_set_category_id":"","picture_set_category_name":"","request_id":"","reverse_intensifies_path":"","reverse_path":"","smart_match_info":null,"smart_motion":null,"source":0,"source_platform":0,"stable":{"matrix_path":"","stable_level":0,"time_range":{"duration":0,"start":0}},"team_id":"","type":"video","video_algorithm":{"ai_background_configs":[],"ai_expression_driven":null,"ai_motion_driven":null,"aigc_generate":null,"algorithms":[],"complement_frame_config":null,"deflicker":null,"gameplay_configs":[],"motion_blur_config":null,"mouth_shape_driver":null,"noise_reduction":null,"path":"","quality_enhance":null,"smart_complement_frame":null,"super_resolution":null,"time_range":{"duration":10000000,"start":0}},"width":480},{"aigc_history_id":"","aigc_item_id":"","aigc_type":"none","audio_fade":null,"beauty_body_preset_id":"","beauty_face_auto_preset":{"name":"","preset_id":"","rate_map":""},"beauty_face_auto_preset_infos":[],"beauty_face_preset_infos":[],"cartoon_path":"","category_id":"","category_name":"","check_flag":62978047,"crop":{"lower_left_x":0.0,"lower_left_y":1.0,"lower_right_x":1.0,"lower_right_y":1.0,"upper_left_x":0.0,"upper_left_y":0.0,"upper_right_x":1.0,"upper_right_y":0.0},"crop_ratio":"free","crop_scale":1.0,"duration":10000000,"extra_type_option":0,"formula_id":"","freeze":null,"has_audio":false,"has_sound_separated":false,"height":480,"id":"C460B612-AE30-45d6-A696-272450BD2878","intensifies_audio_path":"","intensifies_path":"","is_ai_generate_content":false,"is_copyright":false,"is_text_edit_overdub":false,"is_unified_beauty_mode":false,"live_photo_cover_path":"","live_photo_timestamp":-1,"local_id":"","local_material_from":"","local_material_id":"","material_id":"","material_name":"1.4_20250214_1033_Jungle Expedition Trek_storyboard_01jm2heh7segw9ha9j9q85zck2.mp4","material_url":"","matting":{"custom_matting_id":"","enable_matting_stroke":false,"expansion":0,"feather":0,"flag":0,"has_use_quick_brush":false,"has_use_quick_eraser":false,"interactiveTime":[],"path":"","reverse":false,"strokes":[]},"media_path":"","multi_camera_info":null,"object_locked":null,"origin_material_id":"","path":"C:/Users/Computer/Downloads/1.4_20250214_1033_Jungle Expedition Trek_storyboard_01jm2heh7segw9ha9j9q85zck2.mp4","picture_from":"none","picture_set_category_id":"","picture_set_category_name":"","request_id":"","reverse_intensifies_path":"","reverse_path":"","smart_match_info":null,"smart_motion":null,"source":0,"source_platform":0,"stable":{"matrix_path":"","stable_level":0,"time_range":{"duration":0,"start":0}},"team_id":"","type":"video","video_algorithm":{"ai_background_configs":[],"ai_expression_driven":null,"ai_motion_driven":null,"aigc_generate":null,"algorithms":[],"complement_frame_config":null,"deflicker":null,"gameplay_configs":[],"motion_blur_config":null,"mouth_shape_driver":null,"noise_reduction":null,"path":"","quality_enhance":null,"smart_complement_frame":null,"super_resolution":null,"time_range":{"duration":6900000,"start":0}},"width":480},{"aigc_history_id":"","aigc_item_id":"","aigc_type":"none","audio_fade":null,"beauty_body_preset_id":"","beauty_face_auto_preset":{"name":"","preset_id":"","rate_map":""},"beauty_face_auto_preset_infos":[],"beauty_face_preset_infos":[],"cartoon_path":"","category_id":"","category_name":"","check_flag":62978047,"crop":{"lower_left_x":0.0,"lower_left_y":1.0,"lower_right_x":1.0,"lower_right_y":1.0,"upper_left_x":0.0,"upper_left_y":0.0,"upper_right_x":1.0,"upper_right_y":0.0},"crop_ratio":"free","crop_scale":1.0,"duration":10000000,"extra_type_option":0,"formula_id":"","freeze":null,"has_audio":false,"has_sound_separated":false,"height":480,"id":"F43F14EF-5B9F-4981-82D9-B7FC5E52B97B","intensifies_audio_path":"","intensifies_path":"","is_ai_generate_content":false,"is_copyright":false,"is_text_edit_overdub":false,"is_unified_beauty_mode":false,"live_photo_cover_path":"","live_photo_timestamp":-1,"local_id":"","local_material_from":"","local_material_id":"","material_id":"","material_name":"1.4_20250214_1033_Jungle Expedition Trek_storyboard_01jm2heh7segw9ha9j9q85zck2.mp4","material_url":"","matting":{"custom_matting_id":"","enable_matting_stroke":false,"expansion":0,"feather":0,"flag":0,"has_use_quick_brush":false,"has_use_quick_eraser":false,"interactiveTime":[],"path":"","reverse":false,"strokes":[]},"media_path":"","multi_camera_info":null,"object_locked":null,"origin_material_id":"","path":"C:/Users/Computer/Downloads/1.4_20250214_1033_Jungle Expedition Trek_storyboard_01jm2heh7segw9ha9j9q85zck2.mp4","picture_from":"none","picture_set_category_id":"","picture_set_category_name":"","request_id":"","reverse_intensifies_path":"","reverse_path":"","smart_match_info":null,"smart_motion":null,"source":0,"source_platform":0,"stable":{"matrix_path":"","stable_level":0,"time_range":{"duration":0,"start":0}},"team_id":"","type":"video","video_algorithm":{"ai_background_configs":[],"ai_expression_driven":null,"ai_motion_driven":null,"aigc_generate":null,"algorithms":[],"complement_frame_config":null,"deflicker":null,"gameplay_configs":[],"motion_blur_config":null,"mouth_shape_driver":null,"noise_reduction":null,"path":"","quality_enhance":null,"smart_complement_frame":null,"super_resolution":null,"time_range":{"duration":9100000,"start":900000}},"width":480},{"aigc_history_id":"","aigc_item_id":"","aigc_type":"none","audio_fade":null,"beauty_body_preset_id":"","beauty_face_auto_preset":{"name":"","preset_id":"","rate_map":""},"beauty_face_auto_preset_infos":[],"beauty_face_preset_infos":[],"cartoon_path":"","category_id":"","category_name":"","check_flag":62978047,"crop":{"lower_left_x":0.0,"lower_left_y":1.0,"lower_right_x":1.0,"lower_right_y":1.0,"upper_left_x":0.0,"upper_left_y":0.0,"upper_right_x":1.0,"upper_right_y":0.0},"crop_ratio":"free","crop_scale":1.0,"duration":10000000,"extra_type_option":0,"formula_id":"","freeze":null,"has_audio":false,"has_sound_separated":false,"height":480,"id":"9B1CE38D-A0D1-4c9f-B2EF-3B442E49E430","intensifies_audio_path":"","intensifies_path":"","is_ai_generate_content":false,"is_copyright":false,"is_text_edit_overdub":false,"is_unified_beauty_mode":false,"live_photo_cover_path":"","live_photo_timestamp":-1,"local_id":"","local_material_from":"","local_material_id":"","material_id":"","material_name":"1.5_20250214_1107_Unexpected Tribal Encounter_storyboard_01jm2kdwr0eeqvxrh73sr10zb7.mp4","material_url":"","matting":{"custom_matting_id":"","enable_matting_stroke":false,"expansion":0,"feather":0,"flag":0,"has_use_quick_brush":false,"has_use_quick_eraser":false,"interactiveTime":[],"path":"","reverse":false,"strokes":[]},"media_path":"","multi_camera_info":null,"object_locked":null,"origin_material_id":"","path":"C:/Users/Computer/Downloads/1.5_20250214_1107_Unexpected Tribal Encounter_storyboard_01jm2kdwr0eeqvxrh73sr10zb7.mp4","picture_from":"none","picture_set_category_id":"","picture_set_category_name":"","request_id":"","reverse_intensifies_path":"","reverse_path":"","smart_match_info":null,"smart_motion":null,"source":0,"source_platform":0,"stable":{"matrix_path":"","stable_level":0,"time_range":{"duration":0,"start":0}},"team_id":"","type":"video","video_algorithm":{"ai_background_configs":[],"ai_expression_driven":null,"ai_motion_driven":null,"aigc_generate":null,"algorithms":[],"complement_frame_config":null,"deflicker":null,"gameplay_configs":[],"motion_blur_config":null,"mouth_shape_driver":null,"noise_reduction":null,"path":"","quality_enhance":null,"smart_complement_frame":null,"super_resolution":null,"time_range":{"duration":9266666,"start":0}},"width":480},{"aigc_history_id":"","aigc_item_id":"","aigc_type":"none","audio_fade":null,"beauty_body_preset_id":"","beauty_face_auto_preset":{"name":"","preset_id":"","rate_map":""},"beauty_face_auto_preset_infos":[],"beauty_face_preset_infos":[],"cartoon_path":"","category_id":"","category_name":"","check_flag":62978047,"crop":{"lower_left_x":0.0,"lower_left_y":1.0,"lower_right_x":1.0,"lower_right_y":1.0,"upper_left_x":0.0,"upper_left_y":0.0,"upper_right_x":1.0,"upper_right_y":0.0},"crop_ratio":"free","crop_scale":1.0,"duration":10000000,"extra_type_option":0,"formula_id":"","freeze":null,"has_audio":false,"has_sound_separated":false,"height":480,"id":"8F143B69-A5B9-4480-80B0-175B2F543899","intensifies_audio_path":"","intensifies_path":"","is_ai_generate_content":false,"is_copyright":false,"is_text_edit_overdub":false,"is_unified_beauty_mode":false,"live_photo_cover_path":"","live_photo_timestamp":-1,"local_id":"","local_material_from":"","local_material_id":"","material_id":"","material_name":"1.5_20250214_1107_Unexpected Tribal Encounter_storyboard_01jm2kdwr0eeqvxrh73sr10zb7.mp4","material_url":"","matting":{"custom_matting_id":"","enable_matting_stroke":false,"expansion":0,"feather":0,"flag":0,"has_use_quick_brush":false,"has_use_quick_eraser":false,"interactiveTime":[],"path":"","reverse":false,"strokes":[]},"media_path":"","multi_camera_info":null,"object_locked":null,"origin_material_id":"","path":"C:/Users/Computer/Downloads/1.5_20250214_1107_Unexpected Tribal Encounter_storyboard_01jm2kdwr0eeqvxrh73sr10zb7.mp4","picture_from":"none","picture_set_category_id":"","picture_set_category_name":"","request_id":"","reverse_intensifies_path":"","reverse_path":"","smart_match_info":null,"smart_motion":null,"source":0,"source_platform":0,"stable":{"matrix_path":"","stable_level":0,"time_range":{"duration":0,"start":0}},"team_id":"","type":"video","video_algorithm":{"ai_background_configs":[],"ai_expression_driven":null,"ai_motion_driven":null,"aigc_generate":null,"algorithms":[],"complement_frame_config":null,"deflicker":null,"gameplay_configs":[],"motion_blur_config":null,"mouth_shape_driver":null,"noise_reduction":null,"path":"","quality_enhance":null,"smart_complement_frame":null,"super_resolution":null,"time_range":{"duration":6733334,"start":3266666}},"width":480},{"aigc_history_id":"","aigc_item_id":"","aigc_type":"none","audio_fade":null,"beauty_body_preset_id":"","beauty_face_auto_preset":{"name":"","preset_id":"","rate_map":""},"beauty_face_auto_preset_infos":[],"beauty_face_preset_infos":[],"cartoon_path":"","category_id":"","category_name":"","check_flag":62978047,"crop":{"lower_left_x":0.0,"lower_left_y":1.0,"lower_right_x":1.0,"lower_right_y":1.0,"upper_left_x":0.0,"upper_left_y":0.0,"upper_right_x":1.0,"upper_right_y":0.0},"crop_ratio":"free","crop_scale":1.0,"duration":10000000,"extra_type_option":0,"formula_id":"","freeze":null,"has_audio":false,"has_sound_separated":false,"height":480,"id":"47CE9A34-2554-49f0-A6E3-B82EA7B3AD28","intensifies_audio_path":"","intensifies_path":"","is_ai_generate_content":false,"is_copyright":false,"is_text_edit_overdub":false,"is_unified_beauty_mode":false,"live_photo_cover_path":"","live_photo_timestamp":-1,"local_id":"","local_material_from":"","local_material_id":"","material_id":"","material_name":"1.6_20250214_1113_Mystical Jungle Warrior_storyboard_01jm2krhwfebpat97c5w224c04.mp4","material_url":"","matting":{"custom_matting_id":"","enable_matting_stroke":false,"expansion":0,"feather":0,"flag":0,"has_use_quick_brush":false,"has_use_quick_eraser":false,"interactiveTime":[],"path":"","reverse":false,"strokes":[]},"media_path":"","multi_camera_info":null,"object_locked":null,"origin_material_id":"","path":"C:/Users/Computer/Downloads/1.6_20250214_1113_Mystical Jungle Warrior_storyboard_01jm2krhwfebpat97c5w224c04.mp4","picture_from":"none","picture_set_category_id":"","picture_set_category_name":"","request_id":"","reverse_intensifies_path":"","reverse_path":"","smart_match_info":null,"smart_motion":null,"source":0,"source_platform":0,"stable":{"matrix_path":"","stable_level":0,"time_range":{"duration":0,"start":0}},"team_id":"","type":"video","video_algorithm":{"ai_background_configs":[],"ai_expression_driven":null,"ai_motion_driven":null,"aigc_generate":null,"algorithms":[],"complement_frame_config":null,"deflicker":null,"gameplay_configs":[],"motion_blur_config":null,"mouth_shape_driver":null,"noise_reduction":null,"path":"","quality_enhance":null,"smart_complement_frame":null,"super_resolution":null,"time_range":{"duration":10000000,"start":0}},"width":480},{"aigc_history_id":"","aigc_item_id":"","aigc_type":"none","audio_fade":null,"beauty_body_preset_id":"","beauty_face_auto_preset":{"name":"","preset_id":"","rate_map":""},"beauty_face_auto_preset_infos":[],"beauty_face_preset_infos":[],"cartoon_path":"","category_id":"","category_name":"","check_flag":62978047,"crop":{"lower_left_x":0.0,"lower_left_y":1.0,"lower_right_x":1.0,"lower_right_y":1.0,"upper_left_x":0.0,"upper_left_y":0.0,"upper_right_x":1.0,"upper_right_y":0.0},"crop_ratio":"free","crop_scale":1.0,"duration":10000000,"extra_type_option":0,"formula_id":"","freeze":null,"has_audio":false,"has_sound_separated":false,"height":480,"id":"E11B9E91-35EB-4023-BACC-185BC1CCE3FF","intensifies_audio_path":"","intensifies_path":"","is_ai_generate_content":false,"is_copyright":false,"is_text_edit_overdub":false,"is_unified_beauty_mode":false,"live_photo_cover_path":"","live_photo_timestamp":-1,"local_id":"","local_material_from":"","local_material_id":"","material_id":"","material_name":"1.7_20250214_1141_Chase Through Wilderness_storyboard_01jm2nbf8mez5sfvkncdge1f7w.mp4","material_url":"","matting":{"custom_matting_id":"","enable_matting_stroke":false,"expansion":0,"feather":0,"flag":0,"has_use_quick_brush":false,"has_use_quick_eraser":false,"interactiveTime":[],"path":"","reverse":false,"strokes":[]},"media_path":"","multi_camera_info":null,"object_locked":null,"origin_material_id":"","path":"C:/Users/Computer/Downloads/1.7_20250214_1141_Chase Through Wilderness_storyboard_01jm2nbf8mez5sfvkncdge1f7w.mp4","picture_from":"none","picture_set_category_id":"","picture_set_category_name":"","request_id":"","reverse_intensifies_path":"","reverse_path":"","smart_match_info":null,"smart_motion":null,"source":0,"source_platform":0,"stable":{"matrix_path":"","stable_level":0,"time_range":{"duration":0,"start":0}},"team_id":"","type":"video","video_algorithm":{"ai_background_configs":[],"ai_expression_driven":null,"ai_motion_driven":null,"aigc_generate":null,"algorithms":[],"complement_frame_config":null,"deflicker":null,"gameplay_configs":[],"motion_blur_config":null,"mouth_shape_driver":null,"noise_reduction":null,"path":"","quality_enhance":null,"smart_complement_frame":null,"super_resolution":null,"time_range":{"duration":10000000,"start":0}},"width":480},{"aigc_history_id":"","aigc_item_id":"","aigc_type":"none","audio_fade":null,"beauty_body_preset_id":"","beauty_face_auto_preset":{"name":"","preset_id":"","rate_map":""},"beauty_face_auto_preset_infos":[],"beauty_face_preset_infos":[],"cartoon_path":"","category_id":"","category_name":"local","check_flag":62978047,"crop":{"lower_left_x":0.0,"lower_left_y":1.0,"lower_right_x":1.0,"lower_right_y":1.0,"upper_left_x":0.0,"upper_left_y":0.0,"upper_right_x":1.0,"upper_right_y":0.0},"crop_ratio":"free","crop_scale":1.0,"duration":10000000,"extra_type_option":0,"formula_id":"","freeze":null,"has_audio":false,"has_sound_separated":false,"height":480,"id":"F7ED4927-6AA8-4b39-B4AA-0439B00CC0E2","intensifies_audio_path":"","intensifies_path":"","is_ai_generate_content":false,"is_copyright":false,"is_text_edit_overdub":false,"is_unified_beauty_mode":false,"live_photo_cover_path":"","live_photo_timestamp":-1,"local_id":"","local_material_from":"","local_material_id":"597bf23a-94c9-4435-b1d8-ca8a2a1b6b3f","material_id":"","material_name":"1.8_20250214_1130_Chase in the Jungle_storyboard_01jm2mpygmek1b3wn320p6jj7m.mp4","material_url":"","matting":{"custom_matting_id":"","enable_matting_stroke":false,"expansion":0,"feather":0,"flag":0,"has_use_quick_brush":false,"has_use_quick_eraser":false,"interactiveTime":[],"path":"","reverse":false,"strokes":[]},"media_path":"","multi_camera_info":null,"object_locked":null,"origin_material_id":"","path":"C:/Users/Computer/Downloads/1.8_20250214_1130_Chase in the Jungle_storyboard_01jm2mpygmek1b3wn320p6jj7m.mp4","picture_from":"none","picture_set_category_id":"","picture_set_category_name":"","request_id":"","reverse_intensifies_path":"","reverse_path":"","smart_match_info":null,"smart_motion":null,"source":0,"source_platform":0,"stable":{"matrix_path":"","stable_level":0,"time_range":{"duration":0,"start":0}},"team_id":"","type":"video","video_algorithm":{"ai_background_configs":[],"ai_expression_driven":null,"ai_motion_driven":null,"aigc_generate":null,"algorithms":[],"complement_frame_config":null,"deflicker":null,"gameplay_configs":[],"motion_blur_config":null,"mouth_shape_driver":null,"noise_reduction":null,"path":"","quality_enhance":null,"smart_complement_frame":null,"super_resolution":null,"time_range":{"duration":8366667,"start":1633333}},"width":480},{"aigc_history_id":"","aigc_item_id":"","aigc_type":"none","audio_fade":null,"beauty_body_preset_id":"","beauty_face_auto_preset":{"name":"","preset_id":"","rate_map":""},"beauty_face_auto_preset_infos":[],"beauty_face_preset_infos":[],"cartoon_path":"","category_id":"","category_name":"local","check_flag":62978047,"crop":{"lower_left_x":0.0,"lower_left_y":1.0,"lower_right_x":1.0,"lower_right_y":1.0,"upper_left_x":0.0,"upper_left_y":0.0,"upper_right_x":1.0,"upper_right_y":0.0},"crop_ratio":"free","crop_scale":1.0,"duration":10000000,"extra_type_option":0,"formula_id":"","freeze":null,"has_audio":false,"has_sound_separated":false,"height":480,"id":"E741F376-26AE-4120-AC56-4E378576BB1E","intensifies_audio_path":"","intensifies_path":"","is_ai_generate_content":false,"is_copyright":false,"is_text_edit_overdub":false,"is_unified_beauty_mode":false,"live_photo_cover_path":"","live_photo_timestamp":-1,"local_id":"","local_material_from":"","local_material_id":"7d1d127f-6fe1-4540-826b-5dc90df92a85","material_id":"","material_name":"1.9_20250214_1234_Mystical Field Encounter_storyboard_01jm2rd89gfn6vett8bz5cwfy3.mp4","material_url":"","matting":{"custom_matting_id":"","enable_matting_stroke":false,"expansion":0,"feather":0,"flag":0,"has_use_quick_brush":false,"has_use_quick_eraser":false,"interactiveTime":[],"path":"","reverse":false,"strokes":[]},"media_path":"","multi_camera_info":null,"object_locked":null,"origin_material_id":"","path":"C:/Users/Computer/Downloads/1.9_20250214_1234_Mystical Field Encounter_storyboard_01jm2rd89gfn6vett8bz5cwfy3.mp4","picture_from":"none","picture_set_category_id":"","picture_set_category_name":"","request_id":"","reverse_intensifies_path":"","reverse_path":"","smart_match_info":null,"smart_motion":null,"source":0,"source_platform":0,"stable":{"matrix_path":"","stable_level":0,"time_range":{"duration":0,"start":0}},"team_id":"","type":"video","video_algorithm":{"ai_background_configs":[],"ai_expression_driven":null,"ai_motion_driven":null,"aigc_generate":null,"algorithms":[],"complement_frame_config":null,"deflicker":null,"gameplay_configs":[],"motion_blur_config":null,"mouth_shape_driver":null,"noise_reduction":null,"path":"","quality_enhance":null,"smart_complement_frame":null,"super_resolution":null,"time_range":{"duration":9166667,"start":0}},"width":480},{"aigc_history_id":"","aigc_item_id":"","aigc_type":"none","audio_fade":null,"beauty_body_preset_id":"","beauty_face_auto_preset":{"name":"","preset_id":"","rate_map":""},"beauty_face_auto_preset_infos":[],"beauty_face_preset_infos":[],"cartoon_path":"","category_id":"","category_name":"local","check_flag":62978047,"crop":{"lower_left_x":0.0,"lower_left_y":1.0,"lower_right_x":1.0,"lower_right_y":1.0,"upper_left_x":0.0,"upper_left_y":0.0,"upper_right_x":1.0,"upper_right_y":0.0},"crop_ratio":"free","crop_scale":1.0,"duration":10000000,"extra_type_option":0,"formula_id":"","freeze":null,"has_audio":false,"has_sound_separated":false,"height":480,"id":"12FEDAB8-D025-4511-8131-E2F120DE40DA","intensifies_audio_path":"","intensifies_path":"","is_ai_generate_content":false,"is_copyright":false,"is_text_edit_overdub":false,"is_unified_beauty_mode":false,"live_photo_cover_path":"","live_photo_timestamp":-1,"local_id":"","local_material_from":"","local_material_id":"18ab67ee-e0b2-4fd4-98da-47e789bc06cf","material_id":"","material_name":"1.91_20250214_1237_Awakening in Warm Light_storyboard_01jm2rjhm9evqtf9zs90k765c7.mp4","material_url":"","matting":{"custom_matting_id":"","enable_matting_stroke":false,"expansion":0,"feather":0,"flag":0,"has_use_quick_brush":false,"has_use_quick_eraser":false,"interactiveTime":[],"path":"","reverse":false,"strokes":[]},"media_path":"","multi_camera_info":null,"object_locked":null,"origin_material_id":"","path":"C:/Users/Computer/Downloads/1.91_20250214_1237_Awakening in Warm Light_storyboard_01jm2rjhm9evqtf9zs90k765c7.mp4","picture_from":"none","picture_set_category_id":"","picture_set_category_name":"","request_id":"","reverse_intensifies_path":"","reverse_path":"","smart_match_info":null,"smart_motion":null,"source":0,"source_platform":0,"stable":{"matrix_path":"","stable_level":0,"time_range":{"duration":0,"start":0}},"team_id":"","type":"video","video_algorithm":{"ai_background_configs":[],"ai_expression_driven":null,"ai_motion_driven":null,"aigc_generate":null,"algorithms":[],"complement_frame_config":null,"deflicker":null,"gameplay_configs":[],"motion_blur_config":null,"mouth_shape_driver":null,"noise_reduction":null,"path":"","quality_enhance":null,"smart_complement_frame":null,"super_resolution":null,"time_range":{"duration":10000000,"start":0}},"width":480},{"aigc_history_id":"","aigc_item_id":"","aigc_type":"none","audio_fade":null,"beauty_body_preset_id":"","beauty_face_auto_preset":{"name":"","preset_id":"","rate_map":""},"beauty_face_auto_preset_infos":[],"beauty_face_preset_infos":[],"cartoon_path":"","category_id":"","category_name":"local","check_flag":62978047,"crop":{"lower_left_x":0.0,"lower_left_y":1.0,"lower_right_x":1.0,"lower_right_y":1.0,"upper_left_x":0.0,"upper_left_y":0.0,"upper_right_x":1.0,"upper_right_y":0.0},"crop_ratio":"free","crop_scale":1.0,"duration":10000000,"extra_type_option":0,"formula_id":"","freeze":null,"has_audio":false,"has_sound_separated":false,"height":480,"id":"24F43F06-EC01-440f-8A39-11565C003CA9","intensifies_audio_path":"","intensifies_path":"","is_ai_generate_content":false,"is_copyright":false,"is_text_edit_overdub":false,"is_unified_beauty_mode":false,"live_photo_cover_path":"","live_photo_timestamp":-1,"local_id":"","local_material_from":"","local_material_id":"6b2e7246-544f-46c5-902e-af3a4bf6fa1e","material_id":"","material_name":"1.92_20250214_1709_Buried Skulls Unearthed_storyboard_01jnybvhhkex0aeyp4pff8jtg8.mp4","material_url":"","matting":{"custom_matting_id":"","enable_matting_stroke":false,"expansion":0,"feather":0,"flag":0,"has_use_quick_brush":false,"has_use_quick_eraser":false,"interactiveTime":[],"path":"","reverse":false,"strokes":[]},"media_path":"","multi_camera_info":null,"object_locked":null,"origin_material_id":"","path":"C:/Users/Computer/Downloads/1.92_20250214_1709_Buried Skulls Unearthed_storyboard_01jnybvhhkex0aeyp4pff8jtg8.mp4","picture_from":"none","picture_set_category_id":"","picture_set_category_name":"","request_id":"","reverse_intensifies_path":"","reverse_path":"##_draftpath_placeholder_0E685133-18CE-45ED-8CB8-2904A212EC80_##/457a70b817da7ccd521405c87570117c.mp4","smart_match_info":null,"smart_motion":null,"source":0,"source_platform":0,"stable":{"matrix_path":"","stable_level":0,"time_range":{"duration":0,"start":0}},"team_id":"","type":"video","video_algorithm":{"ai_background_configs":[],"ai_expression_driven":null,"ai_motion_driven":null,"aigc_generate":null,"algorithms":[],"complement_frame_config":null,"deflicker":null,"gameplay_configs":[],"motion_blur_config":null,"mouth_shape_driver":null,"noise_reduction":null,"path":"","quality_enhance":null,"smart_complement_frame":null,"super_resolution":null,"time_range":{"duration":10000000,"start":0}},"width":480},{"aigc_history_id":"","aigc_item_id":"","aigc_type":"none","audio_fade":null,"beauty_body_preset_id":"","beauty_face_auto_preset":{"name":"","preset_id":"","rate_map":""},"beauty_face_auto_preset_infos":[],"beauty_face_preset_infos":[],"cartoon_path":"","category_id":"","category_name":"local","check_flag":62978047,"crop":{"lower_left_x":0.0,"lower_left_y":1.0,"lower_right_x":1.0,"lower_right_y":1.0,"upper_left_x":0.0,"upper_left_y":0.0,"upper_right_x":1.0,"upper_right_y":0.0},"crop_ratio":"free","crop_scale":1.0,"duration":10000000,"extra_type_option":0,"formula_id":"","freeze":null,"has_audio":false,"has_sound_separated":false,"height":480,"id":"BEC91651-648D-43e5-ADDA-E264951E2051","intensifies_audio_path":"","intensifies_path":"","is_ai_generate_content":false,"is_copyright":false,"is_text_edit_overdub":false,"is_unified_beauty_mode":false,"live_photo_cover_path":"","live_photo_timestamp":-1,"local_id":"","local_material_from":"","local_material_id":"6b2e7246-544f-46c5-902e-af3a4bf6fa1e","material_id":"","material_name":"1.92_20250214_1709_Buried Skulls Unearthed_storyboard_01jnybvhhkex0aeyp4pff8jtg8.mp4","material_url":"","matting":{"custom_matting_id":"","enable_matting_stroke":false,"expansion":0,"feather":0,"flag":0,"has_use_quick_brush":false,"has_use_quick_eraser":false,"interactiveTime":[],"path":"","reverse":false,"strokes":[]},"media_path":"","multi_camera_info":null,"object_locked":null,"origin_material_id":"","path":"C:/Users/Computer/Downloads/1.92_20250214_1709_Buried Skulls Unearthed_storyboard_01jnybvhhkex0aeyp4pff8jtg8.mp4","picture_from":"none","picture_set_category_id":"","picture_set_category_name":"","request_id":"","reverse_intensifies_path":"","reverse_path":"##_draftpath_placeholder_0E685133-18CE-45ED-8CB8-2904A212EC80_##/457a70b817da7ccd521405c87570117c.mp4","smart_match_info":null,"smart_motion":null,"source":0,"source_platform":0,"stable":{"matrix_path":"","stable_level":0,"time_range":{"duration":0,"start":0}},"team_id":"","type":"video","video_algorithm":{"ai_background_configs":[],"ai_expression_driven":null,"ai_motion_driven":null,"aigc_generate":null,"algorithms":[],"complement_frame_config":null,"deflicker":null,"gameplay_configs":[],"motion_blur_config":null,"mouth_shape_driver":null,"noise_reduction":null,"path":"","quality_enhance":null,"smart_complement_frame":null,"super_resolution":null,"time_range":{"duration":10000000,"start":0}},"width":480}],"vocal_beautifys":[],"vocal_separations":[{"choice":0,"id":"7D1132D8-5265-413d-BDC5-C507C36A64C6","production_path":"","removed_sounds":[],"time_range":null,"type":"vocal_separation"},{"choice":0,"id":"33882FDC-4B70-4656-A46C-1A53E44E22C2","production_path":"","removed_sounds":[],"time_range":null,"type":"vocal_separation"},{"choice":0,"id":"A3E1B1A0-4CAF-41d7-98B6-8F443B5B06E2","production_path":"","removed_sounds":[],"time_range":null,"type":"vocal_separation"},{"choice":0,"id":"323EB108-C5F1-4591-9972-E7A79ACA1837","production_path":"","removed_sounds":[],"time_range":null,"type":"vocal_separation"},{"choice":0,"id":"0E623B04-829D-417d-858E-B5A37023856C","production_path":"","removed_sounds":[],"time_range":null,"type":"vocal_separation"},{"choice":0,"id":"7E7D90FE-7F4C-49c0-9C33-60A1118DA7B0","production_path":"","removed_sounds":[],"time_range":null,"type":"vocal_separation"},{"choice":0,"id":"847EF62C-372D-45b3-A71F-977391D803B7","production_path":"","removed_sounds":[],"time_range":null,"type":"vocal_separation"},{"choice":0,"id":"E1FAD031-33E2-4f1d-8393-90D4E7D690D9","production_path":"","removed_sounds":[],"time_range":null,"type":"vocal_separation"},{"choice":0,"id":"128669E4-822F-454b-9E4B-C32413A8AB01","production_path":"","removed_sounds":[],"time_range":null,"type":"vocal_separation"},{"choice":0,"id":"549EA36C-65F3-4e82-A187-9DE5EC97DA44","production_path":"","removed_sounds":[],"time_range":null,"type":"vocal_separation"},{"choice":0,"id":"69C95093-53F6-4b64-933D-790220B9F16D","production_path":"","removed_sounds":[],"time_range":null,"type":"vocal_separation"},{"choice":0,"id":"683E75AF-99E0-4faf-BABB-3873EE48ADA7","production_path":"","removed_sounds":[],"time_range":null,"type":"vocal_separation"},{"choice":0,"id":"8DF68FBF-8FD4-402b-8EA6-97F0BC216FC6","production_path":"","removed_sounds":[],"time_range":null,"type":"vocal_separation"},{"choice":0,"id":"C43FAAE8-D509-4195-A7AB-CA357F2C16DD","production_path":"","removed_sounds":[],"time_range":null,"type":"vocal_separation"},{"choice":0,"id":"499600C7-98B3-4b15-A42D-FB1E017FC263","production_path":"","removed_sounds":[],"time_range":null,"type":"vocal_separation"},{"choice":0,"id":"D2541F34-941F-46aa-B6D6-3A047FC2697D","production_path":"","removed_sounds":[],"time_range":null,"type":"vocal_separation"},{"choice":0,"id":"3228AAC0-E697-4f34-A13D-090FE407C227","production_path":"","removed_sounds":[],"time_range":null,"type":"vocal_separation"}]},"mutable_config":null,"name":"","new_version":"132.0.0","path":"","platform":{"app_id":359289,"app_source":"cc","app_version":"5.6.0","device_id":"b000ef05ad8a2c8de98905bbc4a2a13d","hard_disk_id":"98697f5b2672733057711c84e4b517c3","mac_address":"3ab780bc59d11a00e1ba676c31de1115,09861091e4eef2367b35d8703476edfc","os":"windows","os_version":"10.0.26100"},"relationships":[],"render_index_track_mode_on":true,"retouch_cover":null,"source":"default","static_cover_image_path":"","time_marks":null,"tracks":[{"attribute":0,"flag":0,"id":"D3E49AFD-4134-4949-912E-D18A78D2D266","is_default_name":true,"name":"","segments":[{"caption_info":null,"cartoon":false,"clip":{"alpha":1.0,"flip":{"horizontal":false,"vertical":false},"rotation":0.0,"scale":{"x":1.0,"y":1.0},"transform":{"x":0.0,"y":0.0}},"color_correct_alg_result":"","common_keyframes":[],"desc":"","digital_human_template_group_id":"","enable_adjust":true,"enable_adjust_mask":false,"enable_color_correct_adjust":false,"enable_color_curves":true,"enable_color_match_adjust":false,"enable_color_wheels":true,"enable_hsl":false,"enable_lut":true,"enable_smart_color_adjust":false,"enable_video_mask":true,"extra_material_refs":["22F12C2C-5583-49cc-933B-B08BF4CBD8AE","D566D24A-C52F-4e56-9789-C432366815F4","8D7A6BAB-45FC-45dd-9053-FD8F72876A51","575DB377-A63D-4b61-8CC8-0EAA13F4BD5E","C11C6A3F-67C4-4916-8C5D-664921009B00","B7C6B4A6-4BB4-4de5-85E8-B03CF341B91E","7D1132D8-5265-413d-BDC5-C507C36A64C6"],"group_id":"","hdr_settings":{"intensity":1.0,"mode":1,"nits":1000},"id":"E56C660A-AE3A-4ca9-9604-7D7484BEA3FD","intensifies_audio":false,"is_loop":false,"is_placeholder":false,"is_tone_modify":false,"keyframe_refs":[],"last_nonzero_volume":1.0,"lyric_keyframes":null,"material_id":"8A074CC4-C8B3-42d4-AEBD-D8CB187B20C6","raw_segment_id":"","render_index":0,"render_timerange":{"duration":0,"start":0},"responsive_layout":{"enable":false,"horizontal_pos_layout":0,"size_layout":0,"target_follow":"","vertical_pos_layout":0},"reverse":false,"source_timerange":{"duration":3766666,"start":0},"speed":1.0,"state":0,"target_timerange":{"duration":3766666,"start":0},"template_id":"","template_scene":"default","track_attribute":0,"track_render_index":0,"uniform_scale":{"on":true,"value":1.0},"visible":true,"volume":1.0},{"caption_info":null,"cartoon":false,"clip":{"alpha":1.0,"flip":{"horizontal":false,"vertical":false},"rotation":0.0,"scale":{"x":1.0,"y":1.0},"transform":{"x":0.0,"y":0.0}},"color_correct_alg_result":"","common_keyframes":[],"desc":"","digital_human_template_group_id":"","enable_adjust":true,"enable_adjust_mask":false,"enable_color_correct_adjust":false,"enable_color_curves":true,"enable_color_match_adjust":false,"enable_color_wheels":true,"enable_hsl":false,"enable_lut":true,"enable_smart_color_adjust":false,"enable_video_mask":true,"extra_material_refs":["13EA177B-E95C-44c2-BFF4-746D71A825C8","4F1D0121-FE5C-4fa8-AB40-7CD3CCAE97E9","65EDA681-6A81-4e27-8555-4CBF247C2D34","4163C4F3-2EE6-4768-B582-EBBD00A363D7","84230743-2C60-4d3d-8D56-E29F74288D7E","A11F5F25-55B0-4367-98BE-C49C5B0ACDF8","33882FDC-4B70-4656-A46C-1A53E44E22C2"],"group_id":"","hdr_settings":{"intensity":1.0,"mode":1,"nits":1000},"id":"59BCCD4F-E408-4b1b-9A1A-C75C61B1CB05","intensifies_audio":false,"is_loop":false,"is_placeholder":false,"is_tone_modify":false,"keyframe_refs":[],"last_nonzero_volume":1.0,"lyric_keyframes":null,"material_id":"EBC676BC-3FCA-4698-9DF6-2FEBD6334D6B","raw_segment_id":"","render_index":0,"render_timerange":{"duration":0,"start":0},"responsive_layout":{"enable":false,"horizontal_pos_layout":0,"size_layout":0,"target_follow":"","vertical_pos_layout":0},"reverse":false,"source_timerange":{"duration":3966666,"start":0},"speed":1.0,"state":0,"target_timerange":{"duration":3966667,"start":3766666},"template_id":"","template_scene":"default","track_attribute":0,"track_render_index":0,"uniform_scale":{"on":true,"value":1.0},"visible":true,"volume":1.0},{"caption_info":null,"cartoon":false,"clip":{"alpha":1.0,"flip":{"horizontal":false,"vertical":false},"rotation":0.0,"scale":{"x":1.0,"y":1.0},"transform":{"x":0.0,"y":0.0}},"color_correct_alg_result":"","common_keyframes":[],"desc":"","digital_human_template_group_id":"","enable_adjust":true,"enable_adjust_mask":false,"enable_color_correct_adjust":false,"enable_color_curves":true,"enable_color_match_adjust":false,"enable_color_wheels":true,"enable_hsl":false,"enable_lut":true,"enable_smart_color_adjust":false,"enable_video_mask":true,"extra_material_refs":["E585024D-059B-491e-BD85-3AD183DFB9DE","6EA8526A-C32D-4339-9965-53276EE81F33","084AA7D9-8315-48dc-98C1-A1F1562F3FF9","48452A90-6B93-4d62-BC07-D444072BF6C8","AD99CDC3-E93C-4587-98A1-E66D620CEDDB","A3E1B1A0-4CAF-41d7-98B6-8F443B5B06E2"],"group_id":"","hdr_settings":{"intensity":1.0,"mode":1,"nits":1000},"id":"FCEB3D69-0229-4631-9D55-67DD5870C668","intensifies_audio":false,"is_loop":false,"is_placeholder":false,"is_tone_modify":false,"keyframe_refs":[],"last_nonzero_volume":1.0,"lyric_keyframes":null,"material_id":"16792AFB-F34C-4f44-8C34-684AD2815D4F","raw_segment_id":"","render_index":0,"render_timerange":{"duration":0,"start":0},"responsive_layout":{"enable":false,"horizontal_pos_layout":0,"size_layout":0,"target_follow":"","vertical_pos_layout":0},"reverse":false,"source_timerange":{"duration":6000000,"start":4000000},"speed":1.0,"state":0,"target_timerange":{"duration":6000000,"start":7733333},"template_id":"","template_scene":"default","track_attribute":0,"track_render_index":0,"uniform_scale":{"on":true,"value":1.0},"visible":true,"volume":1.0},{"caption_info":null,"cartoon":false,"clip":{"alpha":1.0,"flip":{"horizontal":false,"vertical":false},"rotation":0.0,"scale":{"x":1.0,"y":1.0},"transform":{"x":0.0,"y":0.0}},"color_correct_alg_result":"","common_keyframes":[],"desc":"","digital_human_template_group_id":"","enable_adjust":true,"enable_adjust_mask":false,"enable_color_correct_adjust":false,"enable_color_curves":true,"enable_color_match_adjust":false,"enable_color_wheels":true,"enable_hsl":false,"enable_lut":true,"enable_smart_color_adjust":false,"enable_video_mask":true,"extra_material_refs":["7D353B24-3F95-46dc-A189-631AFE889ED0","A3DFF051-19A1-47e3-9271-365B558321FB","9FFABA11-EA5F-4d05-BB1F-47D13B39D84F","19BB4A74-1FE9-45cb-B40C-0D1416EE5BD5","7591FF38-B151-49f9-B0C7-3F04585526CD","323EB108-C5F1-4591-9972-E7A79ACA1837"],"group_id":"","hdr_settings":{"intensity":1.0,"mode":1,"nits":1000},"id":"BBE770B9-EF13-4297-B934-16226AA6871C","intensifies_audio":false,"is_loop":false,"is_placeholder":false,"is_tone_modify":false,"keyframe_refs":[],"last_nonzero_volume":1.0,"lyric_keyframes":null,"material_id":"9627592F-33BC-42d6-B690-7536BD469586","raw_segment_id":"","render_index":0,"render_timerange":{"duration":0,"start":0},"responsive_layout":{"enable":false,"horizontal_pos_layout":0,"size_layout":0,"target_follow":"","vertical_pos_layout":0},"reverse":false,"source_timerange":{"duration":6000000,"start":666666},"speed":1.0,"state":0,"target_timerange":{"duration":6000000,"start":13733333},"template_id":"","template_scene":"default","track_attribute":0,"track_render_index":0,"uniform_scale":{"on":true,"value":1.0},"visible":true,"volume":1.0},{"caption_info":null,"cartoon":false,"clip":{"alpha":1.0,"flip":{"horizontal":false,"vertical":false},"rotation":0.0,"scale":{"x":1.0,"y":1.0},"transform":{"x":0.0,"y":0.0}},"color_correct_alg_result":"","common_keyframes":[],"desc":"","digital_human_template_group_id":"","enable_adjust":true,"enable_adjust_mask":false,"enable_color_correct_adjust":false,"enable_color_curves":true,"enable_color_match_adjust":false,"enable_color_wheels":true,"enable_hsl":false,"enable_lut":true,"enable_smart_color_adjust":false,"enable_video_mask":true,"extra_material_refs":["4BFBDF74-07D9-4d21-A752-90E97756171A","2014A138-D42A-47b3-B2E1-0957C22F1924","3923D6CB-3E26-401d-99D3-C0669EFE104B","B4EB859E-92EA-4ac8-81EC-FBD35364C8E2","C3E5800B-E641-478a-92E9-F33F47A7E639","0E623B04-829D-417d-858E-B5A37023856C"],"group_id":"","hdr_settings":{"intensity":1.0,"mode":1,"nits":1000},"id":"047FEC78-B714-4594-8453-B01E1341D73F","intensifies_audio":false,"is_loop":false,"is_placeholder":false,"is_tone_modify":false,"keyframe_refs":[],"last_nonzero_volume":1.0,"lyric_keyframes":null,"material_id":"7B9C1215-F83F-4811-A07D-723069AB27C9","raw_segment_id":"","render_index":0,"render_timerange":{"duration":0,"start":0},"responsive_layout":{"enable":false,"horizontal_pos_layout":0,"size_layout":0,"target_follow":"","vertical_pos_layout":0},"reverse":false,"source_timerange":{"duration":7166666,"start":0},"speed":1.0,"state":0,"target_timerange":{"duration":7166667,"start":19733333},"template_id":"","template_scene":"default","track_attribute":0,"track_render_index":0,"uniform_scale":{"on":true,"value":1.0},"visible":true,"volume":1.0},{"caption_info":null,"cartoon":false,"clip":{"alpha":1.0,"flip":{"horizontal":false,"vertical":false},"rotation":0.0,"scale":{"x":1.0,"y":1.0},"transform":{"x":0.0,"y":0.0}},"color_correct_alg_result":"","common_keyframes":[],"desc":"","digital_human_template_group_id":"","enable_adjust":true,"enable_adjust_mask":false,"enable_color_correct_adjust":false,"enable_color_curves":true,"enable_color_match_adjust":false,"enable_color_wheels":true,"enable_hsl":false,"enable_lut":true,"enable_smart_color_adjust":false,"enable_video_mask":true,"extra_material_refs":["E2CD690C-22EC-40a6-ACB4-6AD5CCBAB100","52312669-1B0C-4ec1-9525-71D0D641AC31","767942E0-498B-4a67-9294-7CB132E9A5D8","5E63B08F-3B15-43f3-AA69-55F928D9A5E9","688C936E-477F-41d6-AFCD-B78F21BF37EE","7E7D90FE-7F4C-49c0-9C33-60A1118DA7B0"],"group_id":"","hdr_settings":{"intensity":1.0,"mode":1,"nits":1000},"id":"F4902162-9C25-4a2a-808D-07D60B0CD094","intensifies_audio":false,"is_loop":false,"is_placeholder":false,"is_tone_modify":false,"keyframe_refs":[],"last_nonzero_volume":1.0,"lyric_keyframes":null,"material_id":"A38A8712-9EF1-46f3-895A-4A0E35063547","raw_segment_id":"","render_index":0,"render_timerange":{"duration":0,"start":0},"responsive_layout":{"enable":false,"horizontal_pos_layout":0,"size_layout":0,"target_follow":"","vertical_pos_layout":0},"reverse":false,"source_timerange":{"duration":10000000,"start":0},"speed":1.0,"state":0,"target_timerange":{"duration":10000000,"start":26900000},"template_id":"","template_scene":"default","track_attribute":0,"track_render_index":0,"uniform_scale":{"on":true,"value":1.0},"visible":true,"volume":1.0},{"caption_info":null,"cartoon":false,"clip":{"alpha":1.0,"flip":{"horizontal":false,"vertical":false},"rotation":0.0,"scale":{"x":1.0,"y":1.0},"transform":{"x":0.0,"y":0.0}},"color_correct_alg_result":"","common_keyframes":[],"desc":"","digital_human_template_group_id":"","enable_adjust":true,"enable_adjust_mask":false,"enable_color_correct_adjust":false,"enable_color_curves":true,"enable_color_match_adjust":false,"enable_color_wheels":true,"enable_hsl":false,"enable_lut":true,"enable_smart_color_adjust":false,"enable_video_mask":true,"extra_material_refs":["41B6A4DB-26AC-44bf-8EFB-F18451A35629","C682FBF3-4284-4142-9B42-2140461B1F2F","54BD26F6-DEEB-4bc2-933A-726EA23318C9","99C6F3DB-C8F2-4a14-B7EF-D856D8DB4823","E832B900-68AC-49c0-8A03-7524DF470339","847EF62C-372D-45b3-A71F-977391D803B7"],"group_id":"","hdr_settings":{"intensity":1.0,"mode":1,"nits":1000},"id":"945215E8-BD0C-4ce0-920B-68C65B313573","intensifies_audio":false,"is_loop":false,"is_placeholder":false,"is_tone_modify":false,"keyframe_refs":[],"last_nonzero_volume":1.0,"lyric_keyframes":null,"material_id":"C460B612-AE30-45d6-A696-272450BD2878","raw_segment_id":"","render_index":0,"render_timerange":{"duration":0,"start":0},"responsive_layout":{"enable":false,"horizontal_pos_layout":0,"size_layout":0,"target_follow":"","vertical_pos_layout":0},"reverse":false,"source_timerange":{"duration":3400000,"start":500000},"speed":1.0,"state":0,"target_timerange":{"duration":3400000,"start":36900000},"template_id":"","template_scene":"default","track_attribute":0,"track_render_index":0,"uniform_scale":{"on":true,"value":1.0},"visible":true,"volume":1.0},{"caption_info":null,"cartoon":false,"clip":{"alpha":1.0,"flip":{"horizontal":false,"vertical":false},"rotation":0.0,"scale":{"x":1.0,"y":1.0},"transform":{"x":0.0,"y":0.0}},"color_correct_alg_result":"","common_keyframes":[],"desc":"","digital_human_template_group_id":"","enable_adjust":true,"enable_adjust_mask":false,"enable_color_correct_adjust":false,"enable_color_curves":true,"enable_color_match_adjust":false,"enable_color_wheels":true,"enable_hsl":false,"enable_lut":true,"enable_smart_color_adjust":false,"enable_video_mask":true,"extra_material_refs":["63E31C30-6700-4a86-ADEF-D5F1916ED1D8","8CF41622-BE52-46fb-9E3D-AD5D2A8AB381","DE33B258-89DF-4bce-BE49-1C861ED27776","7C155FD5-EF30-408c-A2BA-F2CC754A65C0","B7ECB920-2387-4e82-ABA0-7ECACB3EA012","E1FAD031-33E2-4f1d-8393-90D4E7D690D9"],"group_id":"","hdr_settings":{"intensity":1.0,"mode":1,"nits":1000},"id":"9105776A-2264-4f1f-B497-F128D009AC23","intensifies_audio":false,"is_loop":false,"is_placeholder":false,"is_tone_modify":false,"keyframe_refs":[],"last_nonzero_volume":1.0,"lyric_keyframes":null,"material_id":"F43F14EF-5B9F-4981-82D9-B7FC5E52B97B","raw_segment_id":"","render_index":0,"render_timerange":{"duration":0,"start":0},"responsive_layout":{"enable":false,"horizontal_pos_layout":0,"size_layout":0,"target_follow":"","vertical_pos_layout":0},"reverse":false,"source_timerange":{"duration":6100000,"start":3900000},"speed":1.0,"state":0,"target_timerange":{"duration":6100000,"start":40300000},"template_id":"","template_scene":"default","track_attribute":0,"track_render_index":0,"uniform_scale":{"on":true,"value":1.0},"visible":true,"volume":1.0},{"caption_info":null,"cartoon":false,"clip":{"alpha":1.0,"flip":{"horizontal":false,"vertical":false},"rotation":0.0,"scale":{"x":1.0,"y":1.0},"transform":{"x":0.0,"y":0.0}},"color_correct_alg_result":"","common_keyframes":[],"desc":"","digital_human_template_group_id":"","enable_adjust":true,"enable_adjust_mask":false,"enable_color_correct_adjust":false,"enable_color_curves":true,"enable_color_match_adjust":false,"enable_color_wheels":true,"enable_hsl":false,"enable_lut":true,"enable_smart_color_adjust":false,"enable_video_mask":true,"extra_material_refs":["0BB38B21-D2C3-4e58-9BB1-B3F457EB3B76","181021CC-479D-4df9-9D4C-BFB37166A10C","9787BF30-12D9-4c4c-9330-2BA3E1989B9A","ED00F7F0-1C9C-45fc-B65B-5FB14FD78F50","206F3256-6B53-41af-B161-F98A24CDD480","128669E4-822F-454b-9E4B-C32413A8AB01"],"group_id":"","hdr_settings":{"intensity":1.0,"mode":1,"nits":1000},"id":"4018DD10-8576-4293-A710-BB35393E49C0","intensifies_audio":false,"is_loop":false,"is_placeholder":false,"is_tone_modify":false,"keyframe_refs":[],"last_nonzero_volume":1.0,"lyric_keyframes":null,"material_id":"9B1CE38D-A0D1-4c9f-B2EF-3B442E49E430","raw_segment_id":"","render_index":0,"render_timerange":{"duration":0,"start":0},"responsive_layout":{"enable":false,"horizontal_pos_layout":0,"size_layout":0,"target_follow":"","vertical_pos_layout":0},"reverse":false,"source_timerange":{"duration":5766666,"start":500000},"speed":1.0,"state":0,"target_timerange":{"duration":5766666,"start":46400000},"template_id":"","template_scene":"default","track_attribute":0,"track_render_index":0,"uniform_scale":{"on":true,"value":1.0},"visible":true,"volume":1.0},{"caption_info":null,"cartoon":false,"clip":{"alpha":1.0,"flip":{"horizontal":false,"vertical":false},"rotation":0.0,"scale":{"x":1.0,"y":1.0},"transform":{"x":0.0,"y":0.0}},"color_correct_alg_result":"","common_keyframes":[],"desc":"","digital_human_template_group_id":"","enable_adjust":true,"enable_adjust_mask":false,"enable_color_correct_adjust":false,"enable_color_curves":true,"enable_color_match_adjust":false,"enable_color_wheels":true,"enable_hsl":false,"enable_lut":true,"enable_smart_color_adjust":false,"enable_video_mask":true,"extra_material_refs":["BA357B45-91DC-4b30-84CF-1109D5F62C65","DE7033F1-1152-4a15-A160-6B7E49F084E7","0487E69E-C3E4-490e-8303-561B837C6EDC","F1E311DB-88A7-447a-BE12-D3F3F59AE552","0CCE088D-219C-4471-A3C0-326B9E0B5985","549EA36C-65F3-4e82-A187-9DE5EC97DA44"],"group_id":"","hdr_settings":{"intensity":1.0,"mode":1,"nits":1000},"id":"04394C16-808F-407a-A786-28C173A24DBD","intensifies_audio":false,"is_loop":false,"is_placeholder":false,"is_tone_modify":false,"keyframe_refs":[],"last_nonzero_volume":1.0,"lyric_keyframes":null,"material_id":"8F143B69-A5B9-4480-80B0-175B2F543899","raw_segment_id":"","render_index":0,"render_timerange":{"duration":0,"start":0},"responsive_layout":{"enable":false,"horizontal_pos_layout":0,"size_layout":0,"target_follow":"","vertical_pos_layout":0},"reverse":false,"source_timerange":{"duration":3733334,"start":6266666},"speed":1.0,"state":0,"target_timerange":{"duration":3733334,"start":52166666},"template_id":"","template_scene":"default","track_attribute":0,"track_render_index":0,"uniform_scale":{"on":true,"value":1.0},"visible":true,"volume":1.0},{"caption_info":null,"cartoon":false,"clip":{"alpha":1.0,"flip":{"horizontal":false,"vertical":false},"rotation":0.0,"scale":{"x":1.0,"y":1.0},"transform":{"x":0.0,"y":0.0}},"color_correct_alg_result":"","common_keyframes":[],"desc":"","digital_human_template_group_id":"","enable_adjust":true,"enable_adjust_mask":false,"enable_color_correct_adjust":false,"enable_color_curves":true,"enable_color_match_adjust":false,"enable_color_wheels":true,"enable_hsl":false,"enable_lut":true,"enable_smart_color_adjust":false,"enable_video_mask":true,"extra_material_refs":["5E9A5FFE-5979-4374-A64B-5550D63FEBE1","C33F1EE8-B260-471e-AA4F-48B4BC85453D","0240E24F-C3F2-49d5-930A-41726A1B7CCC","282C3D24-0B39-42dd-A241-BCA8C842CA03","6ADA29CE-4FC8-49a5-A510-E8D0F1EB0F14","69C95093-53F6-4b64-933D-790220B9F16D"],"group_id":"","hdr_settings":{"intensity":1.0,"mode":1,"nits":1000},"id":"4D38D5BB-0789-433a-B0DC-92E825753226","intensifies_audio":false,"is_loop":false,"is_placeholder":false,"is_tone_modify":false,"keyframe_refs":[],"last_nonzero_volume":1.0,"lyric_keyframes":null,"material_id":"47CE9A34-2554-49f0-A6E3-B82EA7B3AD28","raw_segment_id":"","render_index":0,"render_timerange":{"duration":0,"start":0},"responsive_layout":{"enable":false,"horizontal_pos_layout":0,"size_layout":0,"target_follow":"","vertical_pos_layout":0},"reverse":false,"source_timerange":{"duration":9500000,"start":500000},"speed":1.0,"state":0,"target_timerange":{"duration":9500000,"start":55900000},"template_id":"","template_scene":"default","track_attribute":0,"track_render_index":0,"uniform_scale":{"on":true,"value":1.0},"visible":true,"volume":1.0},{"caption_info":null,"cartoon":false,"clip":{"alpha":1.0,"flip":{"horizontal":false,"vertical":false},"rotation":0.0,"scale":{"x":1.0,"y":1.0},"transform":{"x":0.0,"y":0.0}},"color_correct_alg_result":"","common_keyframes":[],"desc":"","digital_human_template_group_id":"","enable_adjust":true,"enable_adjust_mask":false,"enable_color_correct_adjust":false,"enable_color_curves":true,"enable_color_match_adjust":false,"enable_color_wheels":true,"enable_hsl":false,"enable_lut":true,"enable_smart_color_adjust":false,"enable_video_mask":true,"extra_material_refs":["7CD5BF40-F0FA-4f6f-BF83-3F82DDA02B7B","74C63B0C-8B9B-4406-B54D-ACA5C9147E40","7D99B329-DCC9-4d49-AE54-EDB49E5215D8","89525272-581F-441e-9BE7-B867A218BA7D","A192CD81-69AC-494e-B421-0E00953BCDBB","683E75AF-99E0-4faf-BABB-3873EE48ADA7"],"group_id":"","hdr_settings":{"intensity":1.0,"mode":1,"nits":1000},"id":"9364E6A3-CE5B-4a06-84DA-087B4045B71F","intensifies_audio":false,"is_loop":false,"is_placeholder":false,"is_tone_modify":false,"keyframe_refs":[],"last_nonzero_volume":1.0,"lyric_keyframes":null,"material_id":"E11B9E91-35EB-4023-BACC-185BC1CCE3FF","raw_segment_id":"","render_index":0,"render_timerange":{"duration":0,"start":0},"responsive_layout":{"enable":false,"horizontal_pos_layout":0,"size_layout":0,"target_follow":"","vertical_pos_layout":0},"reverse":false,"source_timerange":{"duration":9500000,"start":500000},"speed":1.0,"state":0,"target_timerange":{"duration":9500000,"start":65400000},"template_id":"","template_scene":"default","track_attribute":0,"track_render_index":0,"uniform_scale":{"on":true,"value":1.0},"visible":true,"volume":1.0},{"caption_info":null,"cartoon":false,"clip":{"alpha":1.0,"flip":{"horizontal":false,"vertical":false},"rotation":0.0,"scale":{"x":1.0,"y":1.0},"transform":{"x":0.0,"y":0.0}},"color_correct_alg_result":"","common_keyframes":[],"desc":"","digital_human_template_group_id":"","enable_adjust":true,"enable_adjust_mask":false,"enable_color_correct_adjust":false,"enable_color_curves":true,"enable_color_match_adjust":false,"enable_color_wheels":true,"enable_hsl":false,"enable_lut":true,"enable_smart_color_adjust":false,"enable_video_mask":true,"extra_material_refs":["30D96674-E956-47f7-828B-A1E9BFE52BDF","C9D61C89-F391-44a9-90AC-897194A116B3","AF976DB9-69BC-4640-AFEC-CD51DC911B99","2F38DA55-2139-4a59-9120-82B919939906","F9A55622-617D-4b85-AD81-90F6BA37BBFE","8DF68FBF-8FD4-402b-8EA6-97F0BC216FC6"],"group_id":"","hdr_settings":{"intensity":1.0,"mode":1,"nits":1000},"id":"02EC7DCA-BC70-4af1-8DD4-F9BD6CD259DB","intensifies_audio":false,"is_loop":false,"is_placeholder":false,"is_tone_modify":false,"keyframe_refs":[],"last_nonzero_volume":1.0,"lyric_keyframes":null,"material_id":"F7ED4927-6AA8-4b39-B4AA-0439B00CC0E2","raw_segment_id":"","render_index":0,"render_timerange":{"duration":0,"start":0},"responsive_layout":{"enable":false,"horizontal_pos_layout":0,"size_layout":0,"target_follow":"","vertical_pos_layout":0},"reverse":false,"source_timerange":{"duration":4866667,"start":4633333},"speed":1.0,"state":0,"target_timerange":{"duration":4866666,"start":74900000},"template_id":"","template_scene":"default","track_attribute":0,"track_render_index":0,"uniform_scale":{"on":true,"value":1.0},"visible":true,"volume":1.0},{"caption_info":null,"cartoon":false,"clip":{"alpha":1.0,"flip":{"horizontal":false,"vertical":false},"rotation":0.0,"scale":{"x":1.0,"y":1.0},"transform":{"x":0.0,"y":0.0}},"color_correct_alg_result":"","common_keyframes":[],"desc":"","digital_human_template_group_id":"","enable_adjust":true,"enable_adjust_mask":false,"enable_color_correct_adjust":false,"enable_color_curves":true,"enable_color_match_adjust":false,"enable_color_wheels":true,"enable_hsl":false,"enable_lut":true,"enable_smart_color_adjust":false,"enable_video_mask":true,"extra_material_refs":["6A4D27BE-79A0-4461-BF84-6878D2EAC298","0A8CBCCF-3296-4616-A728-3C0732E8F069","E3F5756A-55FC-4548-AE19-E70EF8EFF0DB","E2BF4B0C-3EE6-4759-9359-367757E6DB06","79141B1C-8633-4c0e-82FD-0DA56C0B4D5E","853398D7-EA6C-480f-89D1-8B64C3034545","C43FAAE8-D509-4195-A7AB-CA357F2C16DD"],"group_id":"","hdr_settings":{"intensity":1.0,"mode":1,"nits":1000},"id":"AB8A6F82-FCE5-4274-912B-7B5F2413B5BF","intensifies_audio":false,"is_loop":false,"is_placeholder":false,"is_tone_modify":false,"keyframe_refs":[],"last_nonzero_volume":1.0,"lyric_keyframes":null,"material_id":"E741F376-26AE-4120-AC56-4E378576BB1E","raw_segment_id":"","render_index":0,"render_timerange":{"duration":0,"start":0},"responsive_layout":{"enable":false,"horizontal_pos_layout":0,"size_layout":0,"target_follow":"","vertical_pos_layout":0},"reverse":false,"source_timerange":{"duration":6166666,"start":0},"speed":1.0,"state":0,"target_timerange":{"duration":6166667,"start":79766666},"template_id":"","template_scene":"default","track_attribute":0,"track_render_index":0,"uniform_scale":{"on":true,"value":1.0},"visible":true,"volume":1.0},{"caption_info":null,"cartoon":false,"clip":{"alpha":1.0,"flip":{"horizontal":false,"vertical":false},"rotation":0.0,"scale":{"x":1.0,"y":1.0},"transform":{"x":0.0,"y":0.0}},"color_correct_alg_result":"","common_keyframes":[],"desc":"","digital_human_template_group_id":"","enable_adjust":true,"enable_adjust_mask":false,"enable_color_correct_adjust":false,"enable_color_curves":true,"enable_color_match_adjust":false,"enable_color_wheels":true,"enable_hsl":false,"enable_lut":true,"enable_smart_color_adjust":false,"enable_video_mask":true,"extra_material_refs":["B8557155-7EAE-4198-BB03-FF3B802D6119","BF85FCAC-FE47-4df8-89B2-84F3CC774E16","E2DF4751-1712-40a1-B172-07BDAF664F23","3BFD5067-A3CB-4630-91D1-663849AE270E","A7001768-2D16-4a16-B4E1-411140B9CC16","499600C7-98B3-4b15-A42D-FB1E017FC263"],"group_id":"","hdr_settings":{"intensity":1.0,"mode":1,"nits":1000},"id":"BD9918FB-C816-4fd5-9E5D-E739DDF0E34C","intensifies_audio":false,"is_loop":false,"is_placeholder":false,"is_tone_modify":false,"keyframe_refs":[],"last_nonzero_volume":1.0,"lyric_keyframes":null,"material_id":"12FEDAB8-D025-4511-8131-E2F120DE40DA","raw_segment_id":"","render_index":0,"render_timerange":{"duration":0,"start":0},"responsive_layout":{"enable":false,"horizontal_pos_layout":0,"size_layout":0,"target_follow":"","vertical_pos_layout":0},"reverse":false,"source_timerange":{"duration":7633334,"start":2366666},"speed":1.0,"state":0,"target_timerange":{"duration":7633333,"start":85933333},"template_id":"","template_scene":"default","track_attribute":0,"track_render_index":0,"uniform_scale":{"on":true,"value":1.0},"visible":true,"volume":1.0},{"caption_info":null,"cartoon":false,"clip":{"alpha":1.0,"flip":{"horizontal":false,"vertical":false},"rotation":0.0,"scale":{"x":1.0,"y":1.0},"transform":{"x":0.0,"y":0.0}},"color_correct_alg_result":"","common_keyframes":[],"desc":"","digital_human_template_group_id":"","enable_adjust":true,"enable_adjust_mask":false,"enable_color_correct_adjust":false,"enable_color_curves":true,"enable_color_match_adjust":false,"enable_color_wheels":true,"enable_hsl":false,"enable_lut":true,"enable_smart_color_adjust":false,"enable_video_mask":true,"extra_material_refs":["C52547E4-65C3-4284-A928-9211E58E3FE0","001FDE3E-E9B7-44e1-A4CD-77899335962C","F6AD20FE-E83D-402c-AAD7-5681DCB5318C","DC9CB503-25B0-4536-BF44-633F6515D8A2","D2541F34-941F-46aa-B6D6-3A047FC2697D"],"group_id":"","hdr_settings":{"intensity":1.0,"mode":1,"nits":1000},"id":"C0025202-5BB9-4024-BBE8-141FFA11641B","intensifies_audio":false,"is_loop":false,"is_placeholder":false,"is_tone_modify":false,"keyframe_refs":[],"last_nonzero_volume":1.0,"lyric_keyframes":null,"material_id":"24F43F06-EC01-440f-8A39-11565C003CA9","raw_segment_id":"","render_index":0,"render_timerange":{"duration":0,"start":0},"responsive_layout":{"enable":false,"horizontal_pos_layout":0,"size_layout":0,"target_follow":"","vertical_pos_layout":0},"reverse":false,"source_timerange":{"duration":10010000,"start":0},"speed":1.1,"state":0,"target_timerange":{"duration":9100000,"start":93566666},"template_id":"","template_scene":"default","track_attribute":0,"track_render_index":0,"uniform_scale":{"on":true,"value":1.0},"visible":true,"volume":1.0},{"caption_info":null,"cartoon":false,"clip":{"alpha":1.0,"flip":{"horizontal":false,"vertical":false},"rotation":0.0,"scale":{"x":1.0,"y":1.0},"transform":{"x":0.0,"y":0.0}},"color_correct_alg_result":"","common_keyframes":[],"desc":"","digital_human_template_group_id":"","enable_adjust":true,"enable_adjust_mask":false,"enable_color_correct_adjust":false,"enable_color_curves":true,"enable_color_match_adjust":false,"enable_color_wheels":true,"enable_hsl":false,"enable_lut":true,"enable_smart_color_adjust":false,"enable_video_mask":true,"extra_material_refs":["BEDF2B5F-F104-48a8-874E-A0D9FB33CF41","A6EF8EE6-EFBD-4e96-BFF8-0B0C35BFF6CC","3ED74EB6-93DF-4e76-A96D-4239D961A34D","3DFD73A4-A61C-4653-A4E9-909DBC402CE7","3228AAC0-E697-4f34-A13D-090FE407C227"],"group_id":"","hdr_settings":{"intensity":1.0,"mode":1,"nits":1000},"id":"59B8440B-41AC-40d8-A7E3-1BB5CC26CB39","intensifies_audio":false,"is_loop":false,"is_placeholder":false,"is_tone_modify":false,"keyframe_refs":[],"last_nonzero_volume":1.0,"lyric_keyframes":null,"material_id":"BEC91651-648D-43e5-ADDA-E264951E2051","raw_segment_id":"","render_index":0,"render_timerange":{"duration":0,"start":0},"responsive_layout":{"enable":false,"horizontal_pos_layout":0,"size_layout":0,"target_follow":"","vertical_pos_layout":0},"reverse":true,"source_timerange":{"duration":10005334,"start":0},"speed":1.12,"state":0,"target_timerange":{"duration":8933334,"start":102666666},"template_id":"","template_scene":"default","track_attribute":0,"track_render_index":0,"uniform_scale":{"on":true,"value":1.0},"visible":true,"volume":1.0}],"type":"video"}],"uneven_animation_template_info":{"composition":"","content":"","order":"","sub_template_info_list":[]},"update_time":0,"version":360000}